<?xml version="1.0" encoding="UTF-8"?>
<svg width="800px" height="800px" fill="none" viewBox="0 0 24 24" xmlns="http://www.w3.org/2000/svg">
<path d="m13.944 1.25h0.1128c1.8378-2e-5 3.2934-3e-5 4.4326 0.15314 1.1724 0.15762 2.1214 0.48974 2.8698 1.2381 0.7483 0.74837 1.0804 1.6973 1.2381 2.8697 0.1531 1.1392 0.1531 2.5948 0.1531 4.4326v4.1128c0 1.8378 0 3.2934-0.1531 4.4326-0.1577 1.1724-0.4898 2.1214-1.2381 2.8698-0.7484 0.7483-1.6974 1.0804-2.8698 1.2381-1.1392 0.1531-2.5948 0.1531-4.4326 0.1531h-2.0565c-0.4142 0-0.75-0.3358-0.75-0.75s0.3358-0.75 0.75-0.75h2.0001c1.9068 0 3.2615-0.0016 4.2892-0.1398 1.006-0.1352 1.5857-0.3889 2.0089-0.8121s0.6769-1.0029 0.8121-2.0089c0.1382-1.0277 0.1398-2.3824 0.1398-4.2892v-4c0-1.9068-0.0016-3.2615-0.1398-4.2892-0.1352-1.0061-0.3889-1.5857-0.8121-2.009s-1.0029-0.67688-2.0089-0.81214c-1.0277-0.13817-2.3824-0.13976-4.2892-0.13976s-3.2615 0.00159-4.2892 0.13976c-1.0061 0.13526-1.5857 0.38893-2.009 0.81214-0.69594 0.69594-0.90666 1.7773-0.94329 4.309-0.00599 0.41417-0.3466 0.74506-0.76077 0.73907s-0.74506-0.3466-0.73907-0.76077c0.03512-2.4275 0.19224-4.1577 1.3825-5.3479 0.74837-0.74836 1.6973-1.0805 2.8697-1.2381 1.1392-0.15317 2.5948-0.15316 4.4326-0.15314zm-8.4821 9h0.07672c0.66957 0 1.2283 0 1.6806 0.046 0.47347 0.0481 0.91284 0.1529 1.3088 0.4175 0.30027 0.2006 0.55809 0.4584 0.75872 0.7587 0.2646 0.396 0.36931 0.8353 0.41748 1.3088 0.04601 0.4524 0.046 1.0111 0.04598 1.6807v4.0766c2e-5 0.6696 3e-5 1.2283-0.04598 1.6807-0.04817 0.4735-0.15288 0.9128-0.41748 1.3088-0.20063 0.3003-0.45845 0.5581-0.75872 0.7587-0.396 0.2646-0.83537 0.3694-1.3088 0.4175-0.45234 0.046-1.0111 0.046-1.6807 0.046h-0.07664c-0.66959 0-1.2283 0-1.6807-0.046-0.47347-0.0481-0.91284-0.1529-1.3088-0.4175-0.30027-0.2006-0.55808-0.4584-0.75872-0.7587-0.2646-0.396-0.36931-0.8353-0.41748-1.3088-0.04601-0.4524-0.046-1.0111-0.04598-1.6807v-4.0766c-2e-5 -0.6696-3e-5 -1.2283 0.04598-1.6807 0.04817-0.4735 0.15288-0.9128 0.41748-1.3088 0.20064-0.3003 0.45845-0.5581 0.75872-0.7587 0.396-0.2646 0.83537-0.3694 1.3088-0.4175 0.45233-0.046 1.011-0.046 1.6806-0.046zm-1.5288 1.5383c-0.35487 0.0361-0.51884 0.0999-0.62729 0.1724-0.13649 0.0912-0.25368 0.2084-0.34488 0.3448-0.07246 0.1085-0.13628 0.2725-0.17238 0.6273-0.03737 0.3674-0.03828 0.8494-0.03828 1.5672v4c0 0.7178 9.1e-4 1.1998 0.03828 1.5672 0.0361 0.3548 0.09992 0.5188 0.17238 0.6273 0.0912 0.1364 0.20839 0.2536 0.34488 0.3448 0.10845 0.0725 0.27242 0.1363 0.62729 0.1724 0.3674 0.0374 0.84933 0.0383 1.5672 0.0383s1.1998-9e-4 1.5672-0.0383c0.35487-0.0361 0.51884-0.0999 0.62729-0.1724 0.13649-0.0912 0.25368-0.2084 0.34488-0.3448 0.07246-0.1085 0.13628-0.2725 0.17238-0.6273 0.03737-0.3674 0.03828-0.8494 0.03828-1.5672v-4c0-0.7178-9.1e-4 -1.1998-0.03828-1.5672-0.0361-0.3548-0.09992-0.5188-0.17238-0.6273-0.0912-0.1364-0.20839-0.2536-0.34488-0.3448-0.10845-0.0725-0.27242-0.1363-0.62729-0.1724-0.3674-0.0374-0.84933-0.0383-1.5672-0.0383s-1.1998 9e-4 -1.5672 0.0383zm7.3172 7.2117c0-0.4142 0.3358-0.75 0.75-0.75h5c0.4142 0 0.75 0.3358 0.75 0.75s-0.3358 0.75-0.75 0.75h-5c-0.4142 0-0.75-0.3358-0.75-0.75z" clip-rule="evenodd" fill-rule="evenodd"/>
</svg>
